<svg width="14" height="15" viewBox="0 0 14 15" fill="none" xmlns="http://www.w3.org/2000/svg">
<path d="M7 0.96875C10.7188 0.96875 13.7812 4.03125 13.7812 7.75C13.7812 11.4961 10.7188 14.5312 7 14.5312C3.25391 14.5312 0.21875 11.4961 0.21875 7.75C0.21875 4.03125 3.25391 0.96875 7 0.96875ZM11.457 4.11328C11.3477 4.27734 10.3906 5.50781 8.23047 6.38281C8.44922 6.82031 8.58594 7.14844 8.75 7.53125C10.6641 7.28516 12.5781 7.66797 12.7695 7.72266C12.7695 6.35547 12.2773 5.09766 11.457 4.11328ZM10.8281 3.42969C9.40625 2.17188 7.46484 1.70703 5.63281 2.14453C5.79688 2.36328 6.83594 3.78516 7.79297 5.53516C9.84375 4.76953 10.7188 3.59375 10.8281 3.42969ZM4.51172 2.52734C2.89844 3.29297 1.69531 4.79688 1.3125 6.57422C1.58594 6.60156 3.96484 6.60156 6.67188 5.89062C5.71484 4.16797 4.67578 2.74609 4.51172 2.52734ZM1.20312 7.77734C1.20312 9.25391 1.75 10.6211 2.67969 11.6328C3.60938 10.0469 5.52344 8.35156 7.62891 7.75C7.46484 7.42188 7.32812 7.09375 7.13672 6.76562C4.26562 7.64062 1.44922 7.61328 1.20312 7.58594C1.20312 7.66797 1.20312 7.72266 1.20312 7.77734ZM3.41797 12.3438C5.14062 13.6836 7.38281 13.9023 9.24219 13.1094C9.16016 12.5898 8.83203 10.8125 8.01172 8.70703C5.6875 9.5 4.04688 11.1133 3.41797 12.3438ZM10.2266 12.5625C11.5117 11.6875 12.4414 10.293 12.7148 8.67969C12.4961 8.625 10.9102 8.16016 9.10547 8.43359C9.84375 10.5391 10.1719 12.2344 10.2266 12.5625Z" fill="black"/>
</svg>
