<svg width="144" height="24" viewBox="0 0 144 24" fill="none" xmlns="http://www.w3.org/2000/svg">
<path fill-rule="evenodd" clip-rule="evenodd" d="M26.8921 0H16.9176V4.5948H26.8921V0ZM87.1427 19.4053H77.1682V24.0001H87.1427V19.4053ZM30.7309 24V7.71404H35.391V24H30.7309ZM95.8921 19.4052V0H91.232V19.4052V24H95.8921H103.549V19.4052H95.8921ZM122.777 0V4.5948H112.284V8.61996H122.777V13.2182H112.284V19.4052H122.777V24H112.284H107.624V19.4052V13.2182V8.61996V4.5948V0H112.284H122.777ZM23.1613 15.0609C21.3237 17.5625 18.3411 19.1959 14.9756 19.1959C9.40371 19.1959 4.87239 14.7281 4.87239 9.23421C4.87239 7.70033 5.22738 6.24537 5.86079 4.94482H0.643852C0.226218 6.3037 0 7.74151 0 9.23421C0 17.3875 6.70302 24 14.9756 24C19.6914 24 23.8956 21.8485 26.6415 18.489L23.1647 15.0609H23.1613ZM55.0128 7.71746C55.0128 11.2313 52.8202 14.2408 49.7123 15.4933H49.7088L56.9617 24H50.8747L44.1369 16.0938V24H39.4768V0.00341797H47.0325C51.2123 0.00341797 54.7935 3.17414 55.0023 7.28852C55.0093 7.42921 55.0128 7.57333 55.0128 7.71746ZM44.3492 10.5553H47.7599C49.2703 10.5553 50.4953 9.34743 50.4953 7.85815C50.4953 6.36887 49.2703 5.16098 47.7599 5.16098H44.3492V10.5553ZM66.4281 14.7555C66.4281 9.64597 70.6427 5.49041 75.8248 5.49041C78.8631 5.49041 81.5673 6.92135 83.2865 9.13467L87.2471 5.22961C84.5012 2.03487 80.4049 0.00341797 75.8248 0.00341797C67.5592 0.00341797 60.8596 6.60908 60.8596 14.7589C60.8596 16.3855 61.1311 17.9468 61.6218 19.4086H67.7019C66.8944 18.0394 66.4281 16.4507 66.4281 14.7589V14.7555ZM126.884 4.5948V0H144V0.0240206L141.727 4.5948H141.717H136.524H126.884ZM139.716 8.61996H134.527L129.167 19.4052H129.15L126.867 24H143.262V19.4052H134.356L139.716 8.61996ZM35.391 2.29911C35.391 3.56888 34.347 4.59823 33.0592 4.59823C31.7714 4.59823 30.7274 3.56888 30.7274 2.29911C30.7274 1.02935 31.7714 0 33.0592 0C34.347 0 35.391 1.02935 35.391 2.29911Z" fill="white"/>
</svg>
