<svg width="14" height="15" viewBox="0 0 14 15" fill="none" xmlns="http://www.w3.org/2000/svg">
<path d="M4.51172 11.6328C4.51172 11.6875 4.45703 11.7148 4.375 11.7148C4.29297 11.7422 4.23828 11.6875 4.23828 11.6328C4.23828 11.5781 4.29297 11.5234 4.375 11.5234C4.45703 11.5234 4.51172 11.5781 4.51172 11.6328ZM3.66406 11.4961C3.69141 11.4414 3.77344 11.4141 3.85547 11.4414C3.9375 11.4688 3.96484 11.5234 3.96484 11.5781C3.9375 11.6328 3.85547 11.6602 3.80078 11.6328C3.71875 11.6328 3.66406 11.5508 3.66406 11.4961ZM4.89453 11.4688C4.94922 11.4414 5.03125 11.4961 5.03125 11.5508C5.05859 11.6055 5.00391 11.6328 4.92188 11.6602C4.83984 11.6875 4.75781 11.6602 4.75781 11.6055C4.75781 11.5234 4.8125 11.4688 4.89453 11.4688ZM6.67188 0.96875C10.4727 0.96875 13.5625 3.86719 13.5625 7.64062C13.5625 10.6758 11.7031 13.2734 8.96875 14.1758C8.61328 14.2578 8.47656 14.0391 8.47656 13.8477C8.47656 13.6289 8.50391 12.4805 8.50391 11.5781C8.50391 10.9219 8.28516 10.5117 8.03906 10.293C9.57031 10.1289 11.1836 9.91016 11.1836 7.28516C11.1836 6.51953 10.9102 6.16406 10.4727 5.67188C10.5273 5.48047 10.7734 4.76953 10.3906 3.8125C9.81641 3.62109 8.50391 4.55078 8.50391 4.55078C7.95703 4.38672 7.38281 4.33203 6.78125 4.33203C6.20703 4.33203 5.63281 4.38672 5.08594 4.55078C5.08594 4.55078 3.74609 3.64844 3.19922 3.8125C2.81641 4.76953 3.03516 5.48047 3.11719 5.67188C2.67969 6.16406 2.46094 6.51953 2.46094 7.28516C2.46094 9.91016 4.01953 10.1289 5.55078 10.293C5.33203 10.4844 5.16797 10.7852 5.11328 11.2227C4.70312 11.4141 3.71875 11.7148 3.11719 10.6484C2.73438 9.99219 2.05078 9.9375 2.05078 9.9375C1.39453 9.9375 2.02344 10.375 2.02344 10.375C2.46094 10.5664 2.76172 11.3594 2.76172 11.3594C3.17188 12.5898 5.08594 12.1797 5.08594 12.1797C5.08594 12.7539 5.08594 13.6836 5.08594 13.875C5.08594 14.0391 4.97656 14.2578 4.62109 14.2031C1.88672 13.2734 0 10.6758 0 7.64062C0 3.86719 2.89844 0.96875 6.67188 0.96875ZM2.65234 10.4023C2.67969 10.375 2.73438 10.4023 2.78906 10.4297C2.84375 10.4844 2.84375 10.5664 2.81641 10.5938C2.76172 10.6211 2.70703 10.5938 2.65234 10.5664C2.625 10.5117 2.59766 10.4297 2.65234 10.4023ZM2.35156 10.1836C2.37891 10.1562 2.40625 10.1562 2.46094 10.1836C2.51562 10.2109 2.54297 10.2383 2.54297 10.2656C2.51562 10.3203 2.46094 10.3203 2.40625 10.293C2.35156 10.2656 2.32422 10.2383 2.35156 10.1836ZM3.22656 11.168C3.28125 11.1133 3.36328 11.1406 3.41797 11.1953C3.47266 11.25 3.47266 11.332 3.44531 11.3594C3.41797 11.4141 3.33594 11.3867 3.28125 11.332C3.19922 11.2773 3.19922 11.1953 3.22656 11.168ZM2.92578 10.7578C2.98047 10.7305 3.03516 10.7578 3.08984 10.8125C3.11719 10.8672 3.11719 10.9492 3.08984 10.9766C3.03516 11.0039 2.98047 10.9766 2.92578 10.9219C2.87109 10.8672 2.87109 10.7852 2.92578 10.7578Z" fill="black"/>
</svg>
