<svg width="16" height="14" viewBox="0 0 16 14" fill="none" xmlns="http://www.w3.org/2000/svg">
<path d="M15.0391 6.33984C15.2305 6.39453 15.3672 6.55859 15.3672 6.75C15.3672 6.96875 15.2031 7.13281 15.0117 7.16016L13.5352 9.78516C13.5352 9.8125 13.5352 9.86719 13.5352 9.89453C13.5352 10.1133 13.3984 10.2773 13.207 10.3047L11.8125 12.7656C11.8125 12.8203 11.8125 12.8477 11.8125 12.9023C11.8125 13.1211 11.6484 13.3125 11.4023 13.3125C11.293 13.3125 11.1836 13.2578 11.1016 13.1758H8.17578C8.09375 13.2578 7.98438 13.3125 7.875 13.3125C7.73828 13.3125 7.62891 13.2578 7.54688 13.1758H4.62109C4.53906 13.2578 4.42969 13.3398 4.32031 13.3398C4.07422 13.3398 3.88281 13.1484 3.88281 12.9023C3.88281 12.8477 3.91016 12.793 3.91016 12.7656L2.51562 10.3047C2.32422 10.2773 2.1875 10.1133 2.1875 9.89453C2.1875 9.86719 2.1875 9.8125 2.1875 9.78516L0.683594 7.16016C0.492188 7.13281 0.355469 6.94141 0.355469 6.75C0.355469 6.55859 0.519531 6.39453 0.710938 6.33984L2.16016 3.82422C2.16016 3.82422 2.16016 3.79688 2.16016 3.76953C2.16016 3.60547 2.26953 3.46875 2.40625 3.41406L3.9375 0.761719C3.91016 0.707031 3.91016 0.652344 3.91016 0.625C3.91016 0.378906 4.10156 0.1875 4.32031 0.1875C4.45703 0.1875 4.56641 0.269531 4.64844 0.351562H7.54688C7.62891 0.269531 7.73828 0.1875 7.875 0.1875C7.98438 0.1875 8.09375 0.269531 8.17578 0.351562H11.1016C11.1836 0.269531 11.293 0.1875 11.4023 0.1875C11.6484 0.1875 11.8398 0.378906 11.8398 0.625C11.8398 0.652344 11.8125 0.707031 11.8125 0.761719L13.3164 3.35938C13.5352 3.38672 13.7266 3.55078 13.7266 3.76953C13.7266 3.85156 13.6992 3.93359 13.6719 3.98828L15.0391 6.33984ZM4.18359 12.082V10.0039H2.98047L4.18359 12.082ZM4.18359 9.78516V8.41797L2.95312 9.70312C2.98047 9.73047 2.98047 9.75781 2.98047 9.78516H4.18359ZM4.18359 8.08984V5.54688L2.81641 4.125C2.76172 4.17969 2.67969 4.17969 2.59766 4.20703L1.17578 6.66797C1.17578 6.69531 1.17578 6.72266 1.17578 6.75C1.17578 6.80469 1.17578 6.83203 1.17578 6.85938L2.70703 9.51172C2.73438 9.51172 2.76172 9.53906 2.81641 9.53906L4.18359 8.08984ZM4.18359 5.30078V3.33203L2.98047 3.74219C2.98047 3.76953 2.98047 3.76953 2.98047 3.76953C2.98047 3.85156 2.98047 3.93359 2.92578 3.98828L4.18359 5.30078ZM4.18359 3.08594V1.44531L2.98047 3.52344L4.18359 3.08594ZM13.125 4.15234H13.0977L10.418 6.91406L12.168 8.77344L13.125 4.17969V4.15234ZM7.95703 9.48438L7.65625 9.78516H8.28516L7.95703 9.48438ZM7.95703 9.15625L10.1172 6.91406L7.84766 4.53516L5.6875 6.83203L7.95703 9.15625ZM8.09375 9.32031L8.55859 9.78516H11.9492L12.1133 9.01953L10.2812 7.07812L8.09375 9.32031ZM11.2109 0.980469L8.01172 4.37109L10.2812 6.75L12.9336 3.98828C12.9062 3.93359 12.8789 3.85156 12.8789 3.76953L11.293 1.00781C11.2656 1.00781 11.2383 0.980469 11.2109 0.980469ZM10.9648 0.925781H10.8555L6.28906 2.56641L7.84766 4.20703L10.9648 0.925781ZM7.57422 0.925781H4.73047L6.125 2.375L10.1992 0.925781H8.14844C8.06641 0.980469 7.98438 1.03516 7.875 1.03516C7.73828 1.03516 7.65625 0.980469 7.57422 0.925781ZM4.40234 1.0625V3.00391L5.90625 2.45703L4.51172 0.980469C4.48438 1.00781 4.45703 1.00781 4.42969 1.00781L4.40234 1.0625ZM4.40234 3.25V5.51953L5.52344 6.66797L7.71094 4.37109L6.07031 2.64844L4.40234 3.25ZM4.40234 5.76562V7.84375L5.41406 6.80469L4.40234 5.76562ZM4.40234 8.17188V9.78516H7.35547L7.82031 9.32031L5.55078 6.96875L4.40234 8.17188ZM4.59375 12.6016H4.62109L7.13672 10.0039H4.40234V12.4648L4.42969 12.5195C4.51172 12.5469 4.53906 12.5742 4.59375 12.6016ZM8.14844 12.6016H10.9922L8.50391 10.0039H7.4375L4.94922 12.6016H7.57422C7.65625 12.5469 7.73828 12.4922 7.875 12.4922C7.98438 12.4922 8.06641 12.5469 8.14844 12.6016ZM11.4297 12.2734L11.8945 10.0039H8.77734L11.2109 12.5195C11.2383 12.5195 11.2656 12.4922 11.3203 12.4922L11.4297 12.2734ZM11.7852 11.6719L12.7422 10.0039H12.1406L11.7852 11.6719ZM12.7422 9.78516C12.7422 9.75781 12.7422 9.73047 12.7695 9.70312L12.3047 9.21094L12.168 9.78516H12.7422ZM14.5469 6.85938C14.5469 6.83203 14.5195 6.80469 14.5195 6.75C14.5195 6.72266 14.5469 6.66797 14.5469 6.64062L13.2891 4.48047L12.3594 8.96484L12.9062 9.56641C12.9609 9.53906 12.9883 9.51172 13.0156 9.51172L14.5469 6.85938Z" fill="black"/>
</svg>
